<svg xmlns="http://www.w3.org/2000/svg" viewBox="0 0 32 32" width="256" height="256"><g data-name="Layer 2"><path d="M14.567 16a7 7 0 10-7-7A7.008 7.008 0 0014.567 16zm0-12a5 5 0 11-5 5A5.006 5.006 0 0114.567 4zM29 24H26V21a1 1 0 00-2 0v3H21a1 1 0 000 2h3v3a1 1 0 002 0V26h3a1 1 0 000-2z" fill="#245177" class="color000 svgShape"></path><path d="M21,28H5.017a1.032,1.032,0,0,1-.833-.428.9.9,0,0,1-.139-.822A11,11,0,0,1,14.567,19.2a11.139,11.139,0,0,1,5.9,1.683,1,1,0,1,0,1.058-1.7A13.14,13.14,0,0,0,14.567,17.2,12.993,12.993,0,0,0,2.144,26.13a2.888,2.888,0,0,0,.42,2.617A3.041,3.041,0,0,0,5.017,30H21a1,1,0,0,0,0-2Z" fill="#245177" class="color000 svgShape"></path></g></svg>