<svg xmlns="http://www.w3.org/2000/svg" enable-background="new 0 0 128 128" viewBox="0 0 128 128" width="256" height="256"><path fill="#245177" d="M107.4,107.5H20.6c-0.8,0-1.5-0.4-1.8-1.1c-0.3-0.7-0.3-1.5,0.2-2.1C27,93.9,31.4,81,31.4,67.9V55    C31.4,37,46,22.4,64,22.4S96.6,37,96.6,55v12.9c0,13.1,4.4,26,12.4,36.4c0.5,0.6,0.5,1.4,0.2,2.1    C108.8,107.1,108.2,107.5,107.4,107.5z M24.5,103.5h79c-7.1-10.5-10.9-23-10.9-35.6V55c0-15.8-12.8-28.6-28.6-28.6    c-15.8,0-28.6,12.8-28.6,28.6v12.9C35.4,80.6,31.6,93.1,24.5,103.5z" class="color303c42 svgShape"></path><path fill="#245177" d="M93.2 98.5c-.4 0-.7-.2-.9-.6-4.4-9.4-6.7-19.8-6.7-30.1V55c0-11.9-9.7-21.6-21.6-21.6-.6 0-1-.4-1-1 0-.6.4-1 1-1C77 31.4 87.6 42 87.6 55v12.9c0 10 2.3 20.1 6.5 29.2.2.5 0 1.1-.5 1.3C93.5 98.5 93.3 98.5 93.2 98.5zM64 118.9c-7.4 0-13.4-6-13.4-13.4 0-1.1.9-2 2-2h22.8c1.1 0 2 .9 2 2C77.4 112.9 71.4 118.9 64 118.9zM54.8 107.5c.9 4.2 4.7 7.4 9.2 7.4 4.5 0 8.2-3.2 9.2-7.4H54.8zM52.7 28.6c-.8 0-1.6-.5-1.9-1.4-.4-1.4-.7-2.8-.7-4.2 0-7.6 6.2-13.9 13.9-13.9 7.6 0 13.9 6.2 13.9 13.9 0 1.4-.2 2.9-.7 4.2-.3 1.1-1.5 1.6-2.5 1.3-1.1-.3-1.6-1.5-1.3-2.5.3-1 .5-2 .5-3 0-5.4-4.4-9.9-9.9-9.9-5.4 0-9.9 4.4-9.9 9.9 0 1 .2 2 .5 3 .3 1.1-.2 2.2-1.3 2.5C53.1 28.5 52.9 28.6 52.7 28.6zM22.3 83.2c-.5 0-1-.2-1.4-.6-10.3-10.3-10.3-27 0-37.2.8-.8 2-.8 2.8 0 .8.8.8 2 0 2.8-8.7 8.7-8.7 22.9 0 31.6.8.8.8 2 0 2.8C23.3 83 22.8 83.2 22.3 83.2z" class="color303c42 svgShape"></path><path fill="#245177" d="M14 91.1c-.5 0-1-.2-1.4-.6C-2.6 75.3-3.6 51.5 10.4 37.4c.8-.8 2-.8 2.8 0 .8.8.8 2 0 2.8C.8 52.7 1.8 74 15.5 87.7c.8.8.8 2 0 2.8C15.1 91 14.6 91.1 14 91.1zM105.7 83.2c-.5 0-1-.2-1.4-.6-.8-.8-.8-2 0-2.8 8.7-8.7 8.7-22.9 0-31.6-.8-.8-.8-2 0-2.8.8-.8 2-.8 2.8 0 10.3 10.3 10.3 27 0 37.2C106.7 83 106.2 83.2 105.7 83.2z" class="color303c42 svgShape"></path><path fill="#245177" d="M113.9,91.1c-0.5,0-1-0.2-1.4-0.6c-0.8-0.8-0.8-2,0-2.8c6.7-6.7,10.5-15.3,10.9-24.3    c0.4-8.9-2.7-17.2-8.7-23.2c-0.8-0.8-0.8-2,0-2.8c0.8-0.8,2-0.8,2.8,0c6.8,6.8,10.3,16.1,9.9,26.2c-0.4,10-4.7,19.6-12.1,26.9    C115,91,114.4,91.1,113.9,91.1z" class="color303c42 svgShape"></path></svg>