<svg xmlns="http://www.w3.org/2000/svg" viewBox="0 0 65 65" width="256" height="256"><path d="m62.9 48 2.4-.4v-4.1l-2.4-.5c-.2-.8-.5-1.5-.9-2.2l1.4-2-2.9-2.9-2 1.4c-.7-.4-1.5-.7-2.3-.9l-.5-2.4h-4.1l-.4 2.4c-.8.2-1.5.5-2.2.9l-2-1.4-3 3 1.4 2c-.4.7-.7 1.5-.9 2.3l-2.4.4v.9c-2.8-1.1-5.3-3.6-6.7-6.9.7-.8 1.3-1.6 1.9-2.5h7.2v-5.9c.5-.2.9-.4 1.2-.8.7-.7 1.1-1.6 1.1-2.6v-3.3c0-1.6-1.1-3-2.6-3.4-.5-8.6-7.6-15.4-16.3-15.4h-1.5c-8.7 0-15.9 6.9-16.3 15.5-1.4.5-2.3 1.8-2.3 3.4v3.3c0 1 .4 1.9 1.1 2.6.7.7 1.6 1.1 2.6 1.1H14V19.1h-2.2c.6-7.7 7-13.8 14.8-13.8h1.5c7.8 0 14.3 6.1 14.8 13.8h-2v10.5h2.3v4.1h-4.9c.3-.7.6-1.4.8-2.2.3-1 .5-4.1 1.1-13.2.4-6.6-1.4-7.5-4.7-8.5-.2-.1-.5-.2-.8-.2-2.7-.9-5.4-1-7.2-1.1-1.8 0-4.6.2-7.2 1.1-.3.1-.5.2-.8.2-3.3 1-5.1 1.9-4.7 8.5.6 9.1.8 12.1 1.1 13.2.8 2.5 2 4.6 3.6 6.2-2.2 5.2-6.8 7.5-10.9 9.5-2.3 1.1-4.2 2.1-5.5 3.4C0 53.9 0 58 0 60.7v.8h55.1v-.8c0-1 0-2.2-.2-3.4H56l.4-2.4c.8-.2 1.5-.5 2.2-.9l2 1.4 2.9-2.9-1.4-2c.3-.9.6-1.7.8-2.5zM12.3 28h-1c-.6 0-1.1-.2-1.5-.6-.4-.4-.6-.9-.6-1.5v-3.3c0-1.2.9-2.1 2.1-2.1h1V28zm29.9-7.5h1c1.2 0 2.1.9 2.1 2.1v3.3c0 .6-.2 1.1-.6 1.5-.4.4-.9.6-1.5.6h-1v-7.5zm-3.6 23.7c-1.9 3.2-4.1 6-6.5 8.4-.2.2-.4.4-.7.6l-.9-5 1.3-3 4.9-2.9c.5.7 1.2 1.4 1.9 1.9zM23.7 44 19 41.2c.5-.7 1-1.6 1.5-2.5 2 1.6 4.4 2.6 6.9 2.6 2.6 0 4.9-.9 7-2.6.4.9.9 1.7 1.4 2.5L30.9 44h-7.2zm1.7 3.4-.8-1.9H30l-.8 1.9h-3.8zm.2 1.5h3.5l1 5.6c-1.3 1.1-2.3 1.8-2.8 2.1-.5-.3-1.5-1-2.7-2.1l1-5.6zm-5.9-37.8c.3-.1.5-.2.8-.2 2-.6 4.3-1 6.8-1s4.8.4 6.8 1c.3.1.5.2.8.2 2.8.9 4 1.2 3.7 6.9v.2c-.3-.3-.6-.5-1-.7-.9-.4-1.9-.5-2.8-.2-4.2 1.4-8-.1-8-.1-1.8-.8-3.6-1.4-5.2-1.7-1.7-.3-3.4.1-4.7 1.2-.3.3-.6.5-.8.8-.3-5.1.9-5.5 3.6-6.4zm-2.6 19.8c-.1-.8-.5-6.3-.8-10h.1c0-1.2.6-2.2 1.5-3 1-.8 2.2-1.1 3.5-.9 1.5.3 3.1.8 4.8 1.6.2.1 4.3 1.7 9 .2.5-.2 1.2-.1 1.7.1s.9.7 1.1 1.2c.1.3.2.6.2 1h.1c-.3 3.6-.7 9-.8 9.7-.3.9-.7 1.8-1.1 2.6h-3.8v-1.8h-7.9v5.1h7.9v-1.8h2.9c-2 3-5 4.7-8.2 4.7-4.5.2-8.5-3.3-10.2-8.7zm14 2.4v2.1h-4.9v-2.1h4.9zM18 42.4l4.9 2.9 1.3 3-.9 5c-2.1-2-4.8-5-7.3-9.1.7-.5 1.3-1.2 2-1.8zm35.4 17.4H1.3c0-2.5.2-5.7 2.7-8.3 1.1-1.1 2.9-2 5-3.1 1.9-.9 3.9-1.9 5.9-3.3 5.7 9.2 11.8 12.8 12.1 13l.4.2.4-.2c.1-.1 2.4-1.4 5.4-4.4 2.5-2.5 4.7-5.4 6.7-8.6.7.4 1.5.8 2.3 1v1.6l2.4.4c.2.8.5 1.5.9 2.2l-1.4 2 2.9 2.9 2-1.4c.7.4 1.5.7 2.3.9l.5 2.4h1.6c-.1 1 0 1.9 0 2.7zm8.1-12.6c-.2 1-.6 1.9-1.1 2.7l-.3.4 1.2 1.8-1.1 1.2-1.7-1.3-.5.3c-.8.5-1.7.9-2.7 1.1l-.5.1-.4 2.1h-1.6l-.4-2.1-.4-.1c-.9-.2-1.8-.6-2.7-1.1l-.4-.3-1.8 1.2-1.1-1 1.2-1.8-.3-.4c-.5-.8-.9-1.7-1.1-2.7l-.1-.5-2.1-.4v-1.6l2.1-.4.1-.5c.2-.9.6-1.8 1.1-2.7l.3-.4-1.3-1.8 1.1-1.2 1.8 1.2.4-.3c.8-.5 1.7-.9 2.7-1.1l.5-.1.4-2.1h1.6l.4 2.1.5.1c1 .2 1.9.6 2.7 1.1l.4.3 1.8-1.2 1.2 1.1-1.2 1.8.3.4c.5.8.9 1.7 1.1 2.7l.1.5 2.1.4v1.6l-2.1.4-.2.5z" fill="#245177" class="color000 svgShape"></path><path d="M53.6 40.3c-1.4 0-2.7.6-3.7 1.6s-1.5 2.3-1.5 3.7c0 2.9 2.4 5.2 5.2 5.2 2.9 0 5.2-2.4 5.2-5.3.1-2.8-2.3-5.2-5.2-5.2zm.1 9v.8-.8c-2.1 0-3.7-1.7-3.8-3.7 0-1 .4-1.9 1.1-2.6.7-.7 1.6-1.1 2.7-1.1 2.1 0 3.7 1.7 3.7 3.7s-1.7 3.7-3.7 3.7z" fill="#245177" class="color000 svgShape"></path></svg>