<svg xmlns="http://www.w3.org/2000/svg" viewBox="0 0 32 32" id="DownloadFile"><path d="M12.46,17.66a1,1,0,1,1,1.46-1.36L15,17.45V13a1,1,0,0,1,2,0v4.45l1.08-1.15a1,1,0,1,1,1.46,1.36l-2.81,3a0,0,0,0,1,0,0l0,0a0,0,0,0,1,0,0,.54.54,0,0,1-.16.1l-.1.07,0,0h0a.9.9,0,0,1-.74,0h0l0,0-.1-.07a.54.54,0,0,1-.16-.1,0,0,0,0,1,0,0l0,0a0,0,0,0,1,0,0ZM19,22H13a1,1,0,0,0,0,2h6a1,1,0,0,0,0-2Zm9-11h0V25a5,5,0,0,1-5,5H9a5,5,0,0,1-5-5V7A5,5,0,0,1,9,2H19a1,1,0,0,1,.71.29l8,8A1,1,0,0,1,28,11ZM20,9.18a.82.82,0,0,0,.82.82h3.77L20,5.41ZM26,25V12H20.82A2.82,2.82,0,0,1,18,9.18V4H9A3,3,0,0,0,6,7V25a3,3,0,0,0,3,3H23A3,3,0,0,0,26,25Z" data-name="file" fill="#000000" class="color000000 svgShape"></path></svg>