<svg xmlns="http://www.w3.org/2000/svg" fill="none" viewBox="0 0 24 24" id="harddisk"><path fill="#000000" fill-rule="evenodd" d="M3.5 4C3.5 2.61929 4.61929 1.5 6 1.5H18C19.3807 1.5 20.5 2.61929 20.5 4V20C20.5 21.3807 19.3807 22.5 18 22.5H6C4.61929 22.5 3.5 21.3807 3.5 20V4ZM6 2.5C5.17157 2.5 4.5 3.17157 4.5 4V20C4.5 20.8284 5.17157 21.5 6 21.5H18C18.8284 21.5 19.5 20.8284 19.5 20V4C19.5 3.17157 18.8284 2.5 18 2.5H6Z" clip-rule="evenodd" class="color000000 svgShape"></path><path fill="#000000" fill-rule="evenodd" d="M16 5C16 4.44772 16.4477 4 17 4 17.5523 4 18 4.44772 18 5 18 5.55228 17.5523 6 17 6 16.4477 6 16 5.55228 16 5zM16 19C16 18.4477 16.4477 18 17 18 17.5523 18 18 18.4477 18 19 18 19.5523 17.5523 20 17 20 16.4477 20 16 19.5523 16 19zM6 5C6 4.44772 6.44772 4 7 4 7.55228 4 8 4.44772 8 5 8 5.55228 7.55228 6 7 6 6.44772 6 6 5.55228 6 5zM12 7.5C9.51472 7.5 7.5 9.51472 7.5 12 7.5 12.8205 7.71913 13.5883 8.10171 14.2496 8.23999 14.4887 8.1583 14.7945 7.91927 14.9328 7.68024 15.0711 7.37438 14.9894 7.23611 14.7504 6.76785 13.9409 6.5 13.001 6.5 12 6.5 8.96243 8.96243 6.5 12 6.5 15.0376 6.5 17.5 8.96243 17.5 12 17.5 15.0376 15.0376 17.5 12 17.5 11.7239 17.5 11.5 17.2761 11.5 17 11.5 16.7239 11.7239 16.5 12 16.5 14.4853 16.5 16.5 14.4853 16.5 12 16.5 9.51472 14.4853 7.5 12 7.5z" clip-rule="evenodd" class="color000000 svgShape"></path><path fill="#000000" fill-rule="evenodd" d="M12 11C11.4477 11 11 11.4477 11 12 11 12.5523 11.4477 13 12 13 12.5523 13 13 12.5523 13 12 13 11.4477 12.5523 11 12 11zM10 12C10 10.8954 10.8954 10 12 10 13.1046 10 14 10.8954 14 12 14 13.1046 13.1046 14 12 14 10.8954 14 10 13.1046 10 12zM10.2803 14.9868C10.4715 15.0972 10.5677 15.32 10.5169 15.5349L9.661 19.1552C9.41195 20.2087 8.21777 20.7243 7.28028 20.183 6.34278 19.6417 6.19214 18.3498 6.97997 17.6074L9.68736 15.056C9.84806 14.9045 10.0891 14.8764 10.2803 14.9868zM9.16025 16.9268L7.6658 18.3351C7.36547 18.6181 7.4229 19.1106 7.78028 19.317 8.13766 19.5233 8.59288 19.3268 8.68782 18.9252L9.16025 16.9268z" clip-rule="evenodd" class="color000000 svgShape"></path></svg>