<svg xmlns="http://www.w3.org/2000/svg" viewBox="0 0 64 64" id="logfile"><path fill="#78b6eb" d="M51,21H10a1,1,0,0,0-1,1V42a1,1,0,0,0,1,1H54a1,1,0,0,0,1-1V22a1,1,0,0,0-1-1Z" class="color78b9eb svgShape"></path><path fill="#245177" d="M60 7a4.995 4.995 0 0 0-5-5H17.11A5.115 5.115 0 0 0 12 7.11V21h2V7.11A3.113 3.113 0 0 1 17.11 4H51c-.028.038-.049.083-.077.122-.059.083-.11.171-.164.258a4.917 4.917 0 0 0-.283.52c-.046.1-.089.2-.129.3a5.1 5.1 0 0 0-.184.593c-.024.094-.053.186-.071.282A4.964 4.964 0 0 0 50 7V21h2V14h8zm-2 5H52V7a3 3 0 1 1 6 0zM50 43V57a3 3 0 1 1-6 0V50H14V43H12v7H4v7a5.006 5.006 0 0 0 5 5H47a5.006 5.006 0 0 0 5-5V43zM9 60a3 3 0 0 1-3-3V52H42v5a4.987 4.987 0 0 0 1 3z" class="color1e81ce svgShape"></path><path fill="#ffffff" d="M21 26H19V37a1 1 0 0 0 1 1h5V36H21zM32 26H30a3 3 0 0 0-3 3v6a3 3 0 0 0 3 3h2a3 3 0 0 0 3-3V29A3 3 0 0 0 32 26zm1 9a1 1 0 0 1-1 1H30a1 1 0 0 1-1-1V29a1 1 0 0 1 1-1h2a1 1 0 0 1 1 1zM44 31H41v2h2v2a1 1 0 0 1-1 1H40a1 1 0 0 1-1-1V29a1 1 0 0 1 1-1h2a1 1 0 0 1 1 1h2a3 3 0 0 0-3-3H40a3 3 0 0 0-3 3v6a3 3 0 0 0 3 3h2a3 3 0 0 0 3-3V32A1 1 0 0 0 44 31z" class="colorffffff svgShape"></path></svg>