<svg xmlns="http://www.w3.org/2000/svg" enable-background="new 0 0 128 128" viewBox="0 0 128 128" width="256" height="256">
  <style type="text/css">
    .st0 {
      fill: #76C2AF;
    }

    .st1 {
      opacity: 0.2;
    }

    .st2 {
      fill: #231F20;
    }

    .st3 {
      fill: #00d1b2;
    }

    .text {
      font-family: "Lobster", cursive;
      font-size: 18px;
      font-weight: 400;
      fill: #231F20;
    }
  </style>
  <!-- Include Pacifico font -->
  <g id="Layer_1">
    <g class="st1">
      <g transform="scale(2.5)">
        <path transform="translate(-6,-6)" class="st2" d="M48,32c0-8.8-7.2-16-16-16c-7.5,0-13.8,5.2-15.5,12.1C11.7,28.9,8,33,8,38c0,5.5,4.5,10,10,10h8
				c1.1,0,2-0.9,2-2v-5.5c0-0.8-0.7-1.5-1.5-1.5h-3.1c-1.5,0-1.9-1-0.9-2.2l7.7-9.8c1-1.2,2.6-1.2,3.5,0l7.7,9.8
				c1,1.2,0.6,2.2-0.9,2.2h-3.1c-0.8,0-1.5,0.7-1.5,1.5V46c0,1.1,0.9,2,2,2h10c4.4,0,8-3.6,8-8S52.4,32,48,32z" />
      </g>
    </g>
    <g>
      <g transform="scale(2.5)" >
        <path transform="translate(-6,-6)"  class="st3"  d="M48,30c0-8.8-7.2-16-16-16c-7.5,0-13.8,5.2-15.5,12.1C11.7,26.9,8,31,8,36c0,5.5,4.5,10,10,10h8
				c1.1,0,2-0.9,2-2v-5.5c0-0.8-0.7-1.5-1.5-1.5h-3.1c-1.5,0-1.9-1-0.9-2.2l7.7-9.8c1-1.2,2.6-1.2,3.5,0l7.7,9.8
				c1,1.2,0.6,2.2-0.9,2.2h-3.1c-0.8,0-1.5,0.7-1.5,1.5V44c0,1.1,0.9,2,2,2h10c4.4,0,8-3.6,8-8S52.4,30,48,30z" />
      </g>
    </g>
  </g>
</svg>