<svg xmlns="http://www.w3.org/2000/svg" data-name="Layer 1" viewBox="0 0 64 64" width="256" height="256"><path d="M47 34h-7a1 1 0 0 0-1 1v4a1 1 0 0 0 1 1h7a1 1 0 0 1 1 1 .974.974 0 0 1-.306.712A.957.957 0 0 1 47 42a4.995 4.995 0 0 0-5 5v3a1 1 0 0 0 1 1h4a1 1 0 0 0 1-1v-2.07A7 7 0 0 0 47 34zm3.53 10.536A4.93 4.93 0 0 1 47 46a1 1 0 0 0-1 1v2h-2v-2a2.994 2.994 0 0 1 3-3 3.015 3.015 0 0 0 3-3 3 3 0 0 0-3-3h-6v-2h6a5 5 0 0 1 3.53 8.536zM47 53h-4a1 1 0 0 0-1 1v4a1 1 0 0 0 1 1h4a1 1 0 0 0 1-1v-4a1 1 0 0 0-1-1zm-1 4h-2v-2h2zM18 47a1 1 0 0 0-1 1v3a1 1 0 0 0 2 0v-3a1 1 0 0 0-1-1zm5 0a1 1 0 0 0-1 1v3a1 1 0 0 0 2 0v-3a1 1 0 0 0-1-1z" fill="#245177" class="color000 svgShape"></path><path d="M54 29H39a5.906 5.906 0 0 0-3.6 1.2A6.037 6.037 0 0 0 33 35v4.46a18.121 18.121 0 0 1-1.064 1.828 17.822 17.822 0 0 0-2.183 4.632A17.483 17.483 0 0 0 29 51a1 1 0 0 0 2 0 15.5 15.5 0 0 1 .667-4.5A15.8 15.8 0 0 1 33 43.382v9.064l-6.016 3.763A4.214 4.214 0 0 0 29.22 64H54a6.006 6.006 0 0 0 6-6V35a6.006 6.006 0 0 0-6-6zm4 29a4 4 0 0 1-4 4H29.22A2.209 2.209 0 0 1 27 59.78a2.18 2.18 0 0 1 1.041-1.872l6.489-4.06A1 1 0 0 0 35 53V35a4.033 4.033 0 0 1 1.6-3.2A3.933 3.933 0 0 1 39 31h15a4 4 0 0 1 4 4zM22 23a1 1 0 0 0 2 0V8.5A2.5 2.5 0 0 1 26.5 6 2.516 2.516 0 0 1 29 8.5V25a1 1 0 0 0 2 0V13a2 2 0 0 1 4 0v13a1 1 0 0 0 2 0V13a3.973 3.973 0 0 0-6-3.444V8.5A4.515 4.515 0 0 0 26.5 4a4.474 4.474 0 0 0-2.5.762V4.5A4.515 4.515 0 0 0 19.5 0 4.505 4.505 0 0 0 15 4.5v.26A4.443 4.443 0 0 0 12.5 4 4.505 4.505 0 0 0 8 8.5v7.105A7.935 7.935 0 0 0 5 15a1 1 0 0 0-1 1v15.18a20.271 20.271 0 0 0 .864 5.864A20.582 20.582 0 0 0 7.4 42.393 15.514 15.514 0 0 1 10 51v12a1 1 0 0 0 2 0V51a17.51 17.51 0 0 0-2.937-9.713 18.62 18.62 0 0 1-2.286-4.826A18.291 18.291 0 0 1 6 31.18v-14.1a5.892 5.892 0 0 1 2.439 1 5.58 5.58 0 0 1 .8.67A5.961 5.961 0 0 1 11 23v6a1 1 0 0 0 1 1c.3 0 7.387.1 10.083 6.394a1 1 0 1 0 1.838-.788c-2.6-6.071-8.541-7.3-10.919-7.544V23a7.946 7.946 0 0 0-2.343-5.657 7.678 7.678 0 0 0-.659-.581V8.5A2.5 2.5 0 0 1 12.5 6 2.516 2.516 0 0 1 15 8.5V23a1 1 0 0 0 2 0V4.5A2.5 2.5 0 0 1 19.5 2 2.516 2.516 0 0 1 22 4.5V23z" fill="#245177" class="color000 svgShape"></path></svg>