<svg xmlns="http://www.w3.org/2000/svg" viewBox="0 0 80 80" id="Storage"><path fill="#245177" fill-rule="evenodd" d="M122 154h56a12 12 0 0 0 0-24h-56a12 12 0 0 0 0 24zm0-20h56a8 8 0 0 1 0 16h-56a8 8 0 0 1 0-16zm-.2 10a2 2 0 1 0 0-4 2 2 0 0 0 0 4zm8 0a2 2 0 0 0 0-4 2 2 0 0 0 0 4zm8 0a2 2 0 0 0 0-4 2 2 0 0 0 0 4zm40.2 14h-56a12 12 0 0 0 0 24h56a12 12 0 0 0 0-24zm0 20h-56a8 8 0 0 1 0-16h56a8 8 0 0 1 0 16zm-56.2-10a2 2 0 0 0 0 4 2 2 0 1 0 0-4zm8 0a2 2 0 0 0 0 4 2 2 0 0 0 0-4zm8 0a2 2 0 0 0 0 4 2 2 0 0 0 0-4zm40.2 18h-56a12 12 0 0 0 0 24h56a12 12 0 0 0 0-24zm0 20h-56a8 8 0 0 1 0-16h56a8 8 0 0 1 0 16zm-56.2-10a2 2 0 0 0 0 4 2 2 0 1 0 0-4zm8 0a2 2 0 0 0 0 4 2 2 0 0 0 0-4zm8 0a2 2 0 0 0 0 4 2 2 0 0 0 0-4z" transform="translate(-110 -130)" class="color3f4662 svgShape"></path></svg>