<svg xmlns="http://www.w3.org/2000/svg" fill-rule="evenodd" stroke-linejoin="round" stroke-miterlimit="2" clip-rule="evenodd" viewBox="0 0 32 32" width="256" height="256"><path fill="#b2b1ff" d="M1,5.998l-0,16.002c-0,1.326 0.527,2.598 1.464,3.536c0.938,0.937 2.21,1.464 3.536,1.464c5.322,0 14.678,-0 20,0c1.326,0 2.598,-0.527 3.536,-1.464c0.937,-0.938 1.464,-2.21 1.464,-3.536c0,-3.486 0,-8.514 0,-12c0,-1.326 -0.527,-2.598 -1.464,-3.536c-0.938,-0.937 -2.21,-1.464 -3.536,-1.464c-0,0 -10.586,0 -10.586,0c0,-0 -3.707,-3.707 -3.707,-3.707c-0.187,-0.188 -0.442,-0.293 -0.707,-0.293l-5.002,0c-2.76,0 -4.998,2.238 -4.998,4.998Z" class="color0096ff svgShape"></path></svg>