<svg xmlns="http://www.w3.org/2000/svg" fill="none" viewBox="0 0 128 128" width="256" height="256"><path fill="#000000" fill-rule="evenodd" d="M34 29c-5.523 0-10 4.477-10 10v44c0 5.523 4.477 10 10 10h42a5 5 0 0 1 0 10H34c-11.046 0-20-8.954-20-20V39c0-11.046 8.954-20 20-20h27.955a20 20 0 0 1 17.13 9.677l5.954 9.88H99c8.284 0 15 6.716 15 15V65.23a5 5 0 0 1-10 0V53.557a5 5 0 0 0-5-5H85.039a10 10 0 0 1-8.565-4.838l-5.954-9.88A10 10 0 0 0 61.955 29H34Z" clip-rule="evenodd" class="color000 svgShape"></path><path fill="#000000" fill-rule="evenodd" d="M93.198 75.246a5 5 0 1 0-7.07 7.07l4.791 4.793-4.445 4.445a5 5 0 0 0 7.07 7.071l4.446-4.445 4.237 4.236a5 5 0 1 0 7.071-7.07l-4.237-4.237 4.446-4.446a5 5 0 1 0-7.071-7.071l-4.446 4.446-4.792-4.792Z" clip-rule="evenodd" class="color000 svgShape"></path></svg>